<?xml version="1.0" standalone="no"?><!DOCTYPE svg PUBLIC "-//W3C//DTD SVG 1.1//EN" "http://www.w3.org/Graphics/SVG/1.1/DTD/svg11.dtd"><svg t="1639381607061" class="icon" viewBox="0 0 1024 1024" version="1.1" xmlns="http://www.w3.org/2000/svg" p-id="9263" width="16" height="16" xmlns:xlink="http://www.w3.org/1999/xlink"><defs><style type="text/css">@font-face { font-family: element-icons; src: url("chrome-extension://moombeodfomdpjnpocobemoiaemednkg/fonts/element-icons.woff") format("woff"), url("chrome-extension://moombeodfomdpjnpocobemoiaemednkg/fonts/element-icons.ttf ") format("truetype"); }
</style></defs><path d="M512 1024a512 512 0 0 0 512-512 512 512 0 0 0-512-512 512 512 0 0 0-512 512 512 512 0 0 0 512 512z m0-56.888889A455.111111 455.111111 0 1 1 512 56.888889a455.111111 455.111111 0 0 1 0 910.222222z" p-id="9264" fill="#bfbfbf"></path><path d="M265.500444 360.277333a75.832889 75.832889 0 1 0 151.665778 0 75.832889 75.832889 0 0 0-151.665778 0zM606.833778 360.277333a75.832889 75.832889 0 1 0 151.665778 0 75.832889 75.832889 0 0 0-151.665778 0zM199.111111 549.944889a312.888889 312.888889 0 1 0 625.777778 0 28.444444 28.444444 0 0 0-28.444445-28.444445H227.555556a28.444444 28.444444 0 0 0-28.444445 28.444445z m567.352889 28.444444a256.056889 256.056889 0 0 1-508.188444 5.859556l-0.739556-5.859556h508.928z" p-id="9265" fill="#bfbfbf"></path></svg>